<svg width="48" height="48" viewBox="0 0 48 48" fill="#fff" xmlns="http://www.w3.org/2000/svg">
<path d="M42 15H6L10.5 45H37.5L42 15Z" stroke="#603c92" stroke-width="1.5" stroke-miterlimit="10" stroke-linecap="square"/>
<path d="M39 9.00064C39.0062 7.85534 38.6827 6.73244 38.0682 5.76594C37.4537 4.79945 36.5741 4.03016 35.5343 3.5499C34.4946 3.06964 33.3386 2.89867 32.2043 3.05741C31.0701 3.21615 30.0054 3.69789 29.1375 4.44514C28.6125 3.54867 27.8621 2.80516 26.9609 2.2885C26.0596 1.77184 25.0388 1.5 24 1.5C22.9611 1.5 21.9403 1.77184 21.0391 2.2885C20.1378 2.80516 19.3874 3.54867 18.8625 4.44514C17.9945 3.69789 16.9299 3.21615 15.7956 3.05741C14.6613 2.89867 13.5054 3.06964 12.4656 3.5499C11.4259 4.03016 10.5462 4.79945 9.93173 5.76594C9.31722 6.73244 8.99376 7.85534 8.99997 9.00064" stroke="#fff" stroke-width="1.5" stroke-miterlimit="10" stroke-linecap="square"/>
<path d="M18 45L16.5 15" stroke="#603c92" stroke-width="1.5" stroke-miterlimit="10"/>
<path d="M30 45L31.5 15" stroke="#603c92" stroke-width="1.5" stroke-miterlimit="10"/>
</svg>
