<svg width="48" height="48" viewBox="0 0 48 48" fill="#fff" xmlns="http://www.w3.org/2000/svg">
<path d="M31.8571 9.84263V4H26.1429V9.71429H20.4286V4H14.7143V9.71429H9V15.4286H14.7143V32.5714H9V38.2857H14.7143V44H20.4286V38.2857H26.1429V44H31.8571V38.1574C35.9043 37.4745 39 33.954 39 29.7143C39 27.517 38.1629 25.5186 36.7999 24C38.1629 22.4814 39 20.483 39 18.2857C39 14.0474 35.9043 10.5269 31.8571 9.84263ZM20.4286 15.4286H30.4286C32.0043 15.4286 33.2857 16.71 33.2857 18.2857C33.2857 19.8615 32.0043 21.1429 30.4286 21.1429H20.4286V15.4286ZM30.4286 32.5714H20.4286V26.8571H30.4286C32.0043 26.8571 33.2857 28.1385 33.2857 29.7143C33.2857 31.29 32.0043 32.5714 30.4286 32.5714Z" stroke="#603c92" stroke-width="1.5"/>
</svg>
