<svg width="48" height="48" viewBox="0 0 48 48" fill="#603c92" xmlns="http://www.w3.org/2000/svg">
<path d="M24 28C26.2091 28 28 26.2091 28 24C28 21.7909 26.2091 20 24 20C21.7909 20 20 21.7909 20 24C20 26.2091 21.7909 28 24 28Z" stroke="white" stroke-width="2" stroke-miterlimit="10" stroke-linecap="square"/>
<path d="M6 28C8.20914 28 10 26.2091 10 24C10 21.7909 8.20914 20 6 20C3.79086 20 2 21.7909 2 24C2 26.2091 3.79086 28 6 28Z" stroke="white" stroke-width="2" stroke-miterlimit="10" stroke-linecap="square"/>
<path d="M42 28C44.2091 28 46 26.2091 46 24C46 21.7909 44.2091 20 42 20C39.7909 20 38 21.7909 38 24C38 26.2091 39.7909 28 42 28Z" stroke="white" stroke-width="2" stroke-miterlimit="10" stroke-linecap="square"/>
</svg>
